<?xml version="1.0" encoding="UTF-8" standalone="no"?>
<svg width="230px" height="182px" viewBox="0 0 230 182" version="1.1" xmlns="http://www.w3.org/2000/svg" xmlns:xlink="http://www.w3.org/1999/xlink" xmlns:sketch="http://www.bohemiancoding.com/sketch/ns">
    <!-- Generator: Sketch 3.3.2 (12043) - http://www.bohemiancoding.com/sketch -->
    <title>Shape</title>
    <desc>Created with Sketch.</desc>
    <defs></defs>
    <g id="Page-1" stroke="none" stroke-width="1" fill="none" fill-rule="evenodd" sketch:type="MSPage">
        <g sketch:type="MSLayerGroup" id="celcius" fill="#FFFFFF">
            <g sketch:type="MSShapeGroup">
                <path d="M68.167,11.375 C64.563,7.979 60.375,5.292 55.625,3.313 C50.813,1.375 45.687,0.375 40.25,0.375 C34.792,0.375 29.666,1.375 24.875,3.313 C20.125,5.292 15.937,7.98 12.334,11.375 C8.75,14.792 5.938,18.792 3.875,23.417 C1.833,28.022 0.813,32.896 0.813,38 C0.813,43.125 1.834,48 3.875,52.605 C5.937,57.209 8.75,61.23 12.334,64.625 C15.938,68.042 20.125,70.75 24.875,72.688 C29.666,74.667 34.792,75.646 40.25,75.646 C45.688,75.646 50.812,74.667 55.625,72.688 C60.375,70.75 64.563,68.042 68.167,64.625 C71.75,61.23 74.563,57.208 76.583,52.605 C78.625,48 79.687,43.126 79.687,38 C79.687,32.896 78.625,28.021 76.583,23.417 C74.562,18.791 71.75,14.791 68.167,11.375 L68.167,11.375 L68.167,11.375 Z M52.812,50.041 C49.374,53.458 45.187,55.166 40.25,55.166 C35.313,55.166 31.125,53.457 27.688,50.041 C24.292,46.624 22.563,42.624 22.563,37.999 C22.563,33.249 24.292,29.166 27.688,25.854 C31.126,22.521 35.313,20.875 40.25,20.875 C45.187,20.875 49.375,22.521 52.812,25.854 C56.187,29.166 57.916,33.249 57.916,37.999 C57.916,42.625 56.188,46.625 52.812,50.041 L52.812,50.041 L52.812,50.041 Z M194.25,146.791 C188.188,148.521 182.167,149.374 176.188,149.374 C172.25,149.374 168.376,148.77 164.542,147.584 C160.688,146.375 157.188,144.5 154.043,141.938 C150.876,139.375 148.313,136.104 146.376,132.084 C144.417,128.084 143.418,123.167 143.418,117.375 L143.418,65.917 C143.418,60.125 144.417,55.167 146.376,51.063 C148.313,46.98 150.835,43.646 153.917,41.084 C157.001,38.522 160.459,36.688 164.417,35.584 C168.334,34.479 172.251,33.917 176.188,33.917 C182.167,33.917 188.312,34.792 194.625,36.605 C200.938,38.396 206.813,41.604 212.293,46.209 L229.189,19.063 C222.335,13.105 214.21,8.751 204.71,6.001 C195.251,3.293 185.418,1.918 175.167,1.918 C166.813,1.918 158.584,3.126 150.584,5.502 C142.563,7.898 135.438,11.481 129.209,16.252 C123.001,21.044 117.938,26.96 114.126,34.043 C110.251,41.127 108.335,49.376 108.335,58.751 L108.335,124.793 C108.335,134.355 110.314,142.668 114.251,149.752 C118.168,156.836 123.292,162.731 129.585,167.418 C135.917,172.126 143.064,175.647 151.084,178.043 C159.126,180.418 167.313,181.627 175.688,181.627 C186.084,181.627 195.959,180.085 205.376,177.023 C214.751,173.94 222.688,169.669 229.188,164.231 L212.542,137.085 C206.416,141.875 200.292,145.104 194.25,146.791 L194.25,146.791 L194.25,146.791 Z" id="Shape"></path>
            </g>
        </g>
    </g>
</svg>