<?xml version="1.0" encoding="UTF-8" standalone="no"?>
<svg width="250px" height="250px" viewBox="0 0 250 250" version="1.1" xmlns="http://www.w3.org/2000/svg" xmlns:xlink="http://www.w3.org/1999/xlink" xmlns:sketch="http://www.bohemiancoding.com/sketch/ns">
    <!-- Generator: Sketch 3.3.2 (12043) - http://www.bohemiancoding.com/sketch -->
    <title>Shape</title>
    <desc>Created with Sketch.</desc>
    <defs></defs>
    <g id="Page-1" stroke="none" stroke-width="1" fill="none" fill-rule="evenodd" sketch:type="MSPage">
        <g id="hazy" sketch:type="MSLayerGroup" transform="translate(3.000000, -4.000000)" fill="#FFFFFF">
            <path d="M215.852,216.15 C165.976,266.066 84.769,266.066 34.852,216.15 C-15.064,166.233 -15.064,85.025 34.852,35.129 C48.061,21.942 64.164,11.879 82.684,5.317 C88.518,3.275 94.977,4.755 99.309,9.109 C103.685,13.484 105.164,19.942 103.102,25.734 C90.56,61.109 99.102,99.4 125.351,125.651 C151.56,151.879 189.852,160.401 225.268,147.901 C231.06,145.839 237.539,147.318 241.893,151.693 C246.269,156.026 247.727,162.505 245.664,168.318 C239.143,186.838 229.06,202.941 215.852,216.15 L215.852,216.15 Z M57.477,57.754 C20.039,95.192 20.039,156.108 57.477,193.525 C97.477,233.546 165.602,229.942 200.477,185.358 C164.518,187.608 129.102,174.629 102.727,148.274 C76.352,121.92 63.394,86.503 65.643,50.545 C62.769,52.796 60.039,55.192 57.477,57.754 L57.477,57.754 Z" id="Shape" sketch:type="MSShapeGroup"></path>
        </g>
    </g>
</svg>