<?xml version="1.0" encoding="UTF-8" standalone="no"?>
<svg width="480px" height="288px" viewBox="0 0 480 288" version="1.1" xmlns="http://www.w3.org/2000/svg" xmlns:xlink="http://www.w3.org/1999/xlink" xmlns:sketch="http://www.bohemiancoding.com/sketch/ns">
    <!-- Generator: Sketch 3.3.2 (12043) - http://www.bohemiancoding.com/sketch -->
    <title>Shape</title>
    <desc>Created with Sketch.</desc>
    <defs></defs>
    <g id="Page-1" stroke="none" stroke-width="1" fill="none" fill-rule="evenodd" sketch:type="MSPage">
        <g id="foggy" sketch:type="MSLayerGroup" fill="#FFFFFF">
            <path d="M464,128 L382.375,128 C374.312,56.208 313.938,0 240,0 C190.188,0 146.25,25.458 120.375,64 L16,64 C7.167,64 0,71.167 0,80 C0,88.833 7.167,96 16,96 L104.833,96 C101.209,106.208 98.854,116.896 97.625,128 L48,128 C39.167,128 32,135.167 32,144 C32,152.833 39.167,160 48,160 L97.625,160 C98.854,171.084 101.209,181.812 104.833,192 L18.916,192 C8.459,192 0,199.167 0,208 C0,216.833 8.459,224 18.916,224 L120.375,224 C146.25,262.562 190.187,288 240,288 C289.812,288 333.75,262.562 359.624,224 L397.084,224 C407.541,224 416,216.833 416,208 C416,199.167 407.541,192 397.084,192 L375.167,192 C378.791,181.812 381.125,171.084 382.375,160 L464,160 C472.833,160 480,152.833 480,144 C480,135.167 472.833,128 464,128 L464,128 Z M139.229,96 L240,96 C248.833,96 256,88.833 256,80 C256,71.167 248.833,64 240,64 L161.854,64 C182.063,44.271 209.583,32 240,32 C296.291,32 342.542,73.875 350.375,128 L129.625,128 C131.25,116.688 134.459,105.958 139.229,96 L139.229,96 Z M240,256 C209.583,256 182.062,243.709 161.854,224 L318.125,224 C297.938,243.709 270.417,256 240,256 L240,256 Z M340.75,192 L139.229,192 C134.459,182.042 131.25,171.312 129.625,160 L350.375,160 C348.75,171.312 345.541,182.042 340.75,192 L340.75,192 Z" id="Shape" sketch:type="MSShapeGroup"></path>
        </g>
    </g>
</svg>