<?xml version="1.0" encoding="UTF-8" standalone="no"?>
<svg width="416px" height="416px" viewBox="0 0 416 416" version="1.1" xmlns="http://www.w3.org/2000/svg" xmlns:xlink="http://www.w3.org/1999/xlink" xmlns:sketch="http://www.bohemiancoding.com/sketch/ns">
    <!-- Generator: Sketch 3.3.2 (12043) - http://www.bohemiancoding.com/sketch -->
    <title>Shape</title>
    <desc>Created with Sketch.</desc>
    <defs></defs>
    <g id="Page-1" stroke="none" stroke-width="1" fill="none" fill-rule="evenodd" sketch:type="MSPage">
        <g id="sunny" sketch:type="MSLayerGroup" fill="#FFFFFF">
            <path d="M208,96 C146.25,96 96,146.25 96,208 C96,269.749 146.25,320 208,320 C269.75,320 320,269.749 320,208 C320,146.25 269.75,96 208,96 L208,96 Z M208,64 C216.833,64 224,56.854 224,48 L224,16 C224,7.167 216.833,0 208,0 C199.146,0 192,7.167 192,16 L192,48 C192,56.854 199.146,64 208,64 L208,64 Z M208,352 C199.146,352 192,359.167 192,368 L192,400 C192,408.854 199.146,416 208,416 C216.833,416 224,408.854 224,400 L224,368 C224,359.167 216.833,352 208,352 L208,352 Z M332.417,106.167 L355.042,83.542 C361.292,77.292 361.292,67.167 355.042,60.917 C348.791,54.667 338.667,54.667 332.417,60.917 L309.792,83.542 C303.541,89.792 303.541,99.917 309.792,106.167 C316.042,112.416 326.166,112.416 332.417,106.167 L332.417,106.167 Z M83.541,309.854 L60.918,332.479 C54.666,338.729 54.666,348.855 60.918,355.104 C67.167,361.354 77.291,361.354 83.541,355.104 L106.166,332.479 C112.417,326.188 112.417,316.104 106.166,309.854 C99.917,303.604 89.792,303.562 83.541,309.854 L83.541,309.854 Z M64,208 C64,199.167 56.833,192 48,192 L16,192 C7.146,192 0,199.167 0,208 C0,216.854 7.146,224 16,224 L48,224 C56.833,224 64,216.854 64,208 L64,208 Z M400,192 L368,192 C359.146,192 352,199.167 352,208 C352,216.854 359.146,224 368,224 L400,224 C408.833,224 416,216.854 416,208 C416,199.167 408.833,192 400,192 L400,192 Z M83.521,106.167 C89.77,112.417 99.896,112.417 106.146,106.167 C112.395,99.917 112.395,89.792 106.146,83.542 L83.521,60.917 C77.271,54.667 67.145,54.667 60.896,60.917 C54.646,67.167 54.646,77.292 60.896,83.542 L83.521,106.167 L83.521,106.167 Z M332.459,309.812 C326.166,303.562 316.083,303.562 309.834,309.812 C303.584,316.061 303.541,326.187 309.834,332.437 L332.459,355.062 C338.708,361.311 348.833,361.311 355.084,355.062 C361.333,348.812 361.333,338.686 355.084,332.437 L332.459,309.812 L332.459,309.812 Z" id="Shape" sketch:type="MSShapeGroup"></path>
        </g>
    </g>
</svg>