<?xml version="1.0" encoding="UTF-8" standalone="no"?>
<svg width="155px" height="155px" viewBox="0 0 155 155" version="1.1" xmlns="http://www.w3.org/2000/svg" xmlns:xlink="http://www.w3.org/1999/xlink" xmlns:sketch="http://www.bohemiancoding.com/sketch/ns">
    <!-- Generator: Sketch 3.3.2 (12043) - http://www.bohemiancoding.com/sketch -->
    <title>Brella</title>
    <desc>Created with Sketch.</desc>
    <defs>
        <linearGradient x1="7.50864022%" y1="5.94332425%" x2="94.0278783%" y2="91.7068425%" id="linearGradient-1">
            <stop stop-color="#5FA7FF" offset="0%"></stop>
            <stop stop-color="#121328" offset="100%"></stop>
        </linearGradient>
        <filter x="-50%" y="-50%" width="200%" height="200%" filterUnits="objectBoundingBox" id="filter-2">
            <feOffset dx="0" dy="2" in="SourceAlpha" result="shadowOffsetOuter1"></feOffset>
            <feGaussianBlur stdDeviation="2" in="shadowOffsetOuter1" result="shadowBlurOuter1"></feGaussianBlur>
            <feColorMatrix values="0 0 0 0 0   0 0 0 0 0   0 0 0 0 0  0 0 0 0.35 0" in="shadowBlurOuter1" type="matrix" result="shadowMatrixOuter1"></feColorMatrix>
            <feMerge>
                <feMergeNode in="shadowMatrixOuter1"></feMergeNode>
                <feMergeNode in="SourceGraphic"></feMergeNode>
            </feMerge>
        </filter>
        <path d="M127.801,2 C131.03,2 134.044,2.612 136.83,3.823 C139.615,5.034 142.044,6.676 144.103,8.735 C146.162,10.794 147.804,13.223 149.015,16.008 C150.226,18.794 150.838,21.808 150.838,25.037 L150.838,125.679 C150.838,128.915 150.226,131.95 149.015,134.775 C147.804,137.602 146.162,140.051 144.103,142.109 C142.044,144.168 139.615,145.81 136.83,147.021 C134.044,148.232 131.03,148.838 127.801,148.838 L27.159,148.838 C23.922,148.838 20.888,148.232 18.062,147.021 C15.236,145.81 12.787,144.168 10.729,142.109 C8.669,140.051 7.028,137.602 5.816,134.775 C4.605,131.95 4,128.915 4,125.679 L4,25.037 C4,21.808 4.605,18.794 5.816,16.008 C7.028,13.223 8.669,10.794 10.729,8.735 C12.787,6.676 15.236,5.034 18.062,3.823 C20.888,2.612 23.922,2 27.159,2 L127.801,2 L127.801,2 Z M29.756,14.918 C27.898,14.918 26.203,15.241 24.669,15.887 C23.135,16.533 21.783,17.441 20.612,18.612 C19.441,19.783 18.533,21.155 17.887,22.73 C17.241,24.305 16.918,25.979 16.918,27.756 L16.918,123.082 C16.918,126.715 18.149,129.763 20.612,132.226 C23.075,134.688 26.123,135.92 29.756,135.92 L125.082,135.92 C126.858,135.92 128.533,135.597 130.108,134.95 C131.683,134.305 133.055,133.396 134.225,132.226 C135.396,131.055 136.305,129.702 136.951,128.169 C137.597,126.635 137.92,124.94 137.92,123.082 L137.92,27.756 C137.92,25.979 137.597,24.305 136.951,22.73 C136.305,21.155 135.396,19.783 134.225,18.612 C133.055,17.441 131.683,16.533 130.108,15.887 C128.533,15.241 126.858,14.918 125.082,14.918 L29.756,14.918 L29.756,14.918 Z M77.479,27.837 C84.106,27.837 90.311,28.866 96.09,30.918 C101.869,32.977 106.902,35.776 111.188,39.321 C115.468,42.867 118.865,47.019 121.368,51.769 C123.871,56.526 125.129,61.605 125.129,67.009 L125.008,67.009 C120.628,63.859 116.57,62.285 112.844,62.285 C110.892,62.285 108.988,62.669 107.124,63.435 C105.254,64.203 103.269,65.394 101.163,67.009 L101.042,67.009 C98.767,65.394 96.723,64.203 94.899,63.435 C93.069,62.669 91.266,62.285 89.482,62.285 C88.265,62.285 87.027,62.427 85.768,62.709 C84.511,62.992 83.232,63.537 81.94,64.344 L81.94,108.67 C81.94,110.688 81.563,112.565 80.81,114.302 C80.057,116.037 79.02,117.552 77.715,118.843 C76.403,120.135 74.869,121.144 73.113,121.871 C71.35,122.598 69.466,122.961 67.447,122.961 C65.51,122.961 63.673,122.598 61.937,121.871 C60.201,121.144 58.687,120.135 57.395,118.843 C56.104,117.552 55.095,116.037 54.368,114.302 C53.642,112.565 53.278,110.688 53.278,108.67 C53.278,107.298 53.763,106.268 54.731,105.582 C55.7,104.896 56.75,104.553 57.88,104.553 C58.93,104.553 59.938,104.896 60.908,105.582 C61.877,106.268 62.361,107.298 62.361,108.67 C62.361,110.123 62.865,111.354 63.875,112.364 C64.884,113.373 66.075,113.878 67.447,113.878 C68.82,113.878 70.071,113.373 71.202,112.364 C72.332,111.354 72.897,110.123 72.897,108.67 L72.897,63.98 C71.767,63.335 70.61,62.891 69.439,62.648 C68.268,62.406 67.111,62.285 65.98,62.285 C61.775,62.285 57.691,63.859 53.729,67.009 L53.607,67.009 C49.968,63.859 46.126,62.285 42.082,62.285 C38.119,62.285 34.156,63.859 30.193,67.009 L29.709,67.009 C29.709,61.605 30.96,56.526 33.463,51.769 C35.966,47.019 39.364,42.867 43.649,39.321 C47.929,35.776 52.981,32.977 58.802,30.918 C64.622,28.866 70.846,27.837 77.479,27.837 L77.479,27.837 Z" id="path-3"></path>
    </defs>
    <g id="Page-1" stroke="none" stroke-width="1" fill="none" fill-rule="evenodd" sketch:type="MSPage">
        <g id="rain" filter="url(#filter-2)">
            <use fill="url(#linearGradient-1)" fill-rule="evenodd" sketch:type="MSShapeGroup" xlink:href="#path-3"></use>
            <use fill="none" xlink:href="#path-3"></use>
        </g>
    </g>
</svg>