<?xml version="1.0" encoding="UTF-8" standalone="no"?>
<svg width="36px" height="34px" viewBox="0 0 36 34" version="1.1" xmlns="http://www.w3.org/2000/svg" xmlns:xlink="http://www.w3.org/1999/xlink" xmlns:sketch="http://www.bohemiancoding.com/sketch/ns">
    <!-- Generator: Sketch 3.3.2 (12043) - http://www.bohemiancoding.com/sketch -->
    <title>Group + notallowed</title>
    <desc>Created with Sketch.</desc>
    <defs></defs>
    <g id="Page-1" stroke="none" stroke-width="1" fill="none" fill-rule="evenodd" sketch:type="MSPage">
        <g id="umbrella" sketch:type="MSLayerGroup" fill="#FFFFFF">
            <g id="Group-+-notallowed" sketch:type="MSShapeGroup">
                <g id="Group" transform="translate(18.425976, 17.264960) rotate(328.000000) translate(-18.425976, -17.264960) translate(5.925976, 5.264960)">
                    <path d="M1,5.58748276 C2.076064,5.09468966 3.36544,5.13637931 4.443616,5.81731034 L4.443616,5.81731034 C5.793184,6.67034483 6.400384,8.26524138 6.078304,9.75431034 L6.078304,9.75431034 C7.2568,8.8072069 8.940064,8.65862069 10.289632,9.50951724 L10.289632,9.50951724 C11.638144,10.3636207 12.2464,11.9595862 11.923264,13.4486552 L11.923264,13.4486552 C13.10176,12.4994138 14.787136,12.3508276 16.134592,13.2038621 L16.134592,13.2038621 C17.483104,14.0568966 18.092416,15.6528621 17.76928,17.141931 L17.76928,17.141931 C18.947776,16.1948276 20.63104,16.0451724 21.979552,16.8971379 L21.979552,16.8971379 C23.10208,17.6037241 23.706112,18.8255517 23.695552,20.0708966 C26.257408,13.9478621 24.11584,6.67782759 18.368032,3.04441379 L18.368032,3.04441379 C16.129312,1.63124138 13.642432,0.956724138 11.186176,0.956724138 C7.370848,0.955655172 3.628384,2.58262069 1,5.58748276 L1,5.58748276 Z" id="Shape"></path>
                </g>
                <g id="notallowed">
                    <g id="Shape">
                        <path d="M18,0 C8.0748,0 0,7.6262 0,17 C0,26.3738 8.0748,34 18,34 C27.9252,34 36,26.3738 36,17 C36,7.6262 27.9252,0 18,0 L18,0 Z M27.40248,28.15812 C24.81912,30.10564 21.55536,31.28 18,31.28 C9.66312,31.28 2.88,24.87372 2.88,17 C2.88,13.80196 3.9996,10.846 5.88744,8.46328 C6.12504,8.16272 6.56352,8.14028 6.84864,8.40208 L27.43704,27.2476 C27.72288,27.5094 27.71136,27.92352 27.40248,28.15812 L27.40248,28.15812 Z M30.35808,25.19536 C30.12912,25.50204 29.69784,25.52992 29.41344,25.26812 L8.88336,6.47632 C8.59824,6.21452 8.61408,5.8072 8.9316,5.58144 C11.45952,3.78556 14.60016,2.72 18,2.72 C26.33688,2.72 33.12,9.12628 33.12,17 C33.12,20.05048 32.09184,22.87452 30.35808,25.19536 L30.35808,25.19536 Z"></path>
                    </g>
                </g>
            </g>
        </g>
    </g>
</svg>