<?xml version="1.0" encoding="UTF-8" standalone="no"?>
<svg width="28px" height="29px" viewBox="0 0 28 29" version="1.1" xmlns="http://www.w3.org/2000/svg" xmlns:xlink="http://www.w3.org/1999/xlink" xmlns:sketch="http://www.bohemiancoding.com/sketch/ns">
    <!-- Generator: Sketch 3.3.2 (12043) - http://www.bohemiancoding.com/sketch -->
    <title>Group</title>
    <desc>Created with Sketch.</desc>
    <defs></defs>
    <g id="Page-1" stroke="none" stroke-width="1" fill="none" fill-rule="evenodd" sketch:type="MSPage">
        <g id="umbrella" sketch:type="MSLayerGroup" transform="translate(-5.000000, -3.000000)" fill="#FFFFFF">
            <g id="Group" transform="translate(18.850000, 17.000000) rotate(328.000000) translate(-18.850000, -17.000000) translate(6.850000, 5.000000)" sketch:type="MSShapeGroup">
                <path d="M17.03328,2.73013793 L5.43312,21.5856207 L5.432064,21.5834828 C5.405664,21.639069 5.368704,21.6871724 5.335968,21.7395517 L5.335968,21.7395517 C4.800576,22.6075517 3.60096,22.8288276 2.657952,22.2323448 L2.657952,22.2323448 C1.712832,21.6337241 1.382304,20.4471724 1.917696,19.5802414 L1.917696,19.5802414 C1.950432,19.528931 1.991616,19.4861724 2.029632,19.437 L2.029632,19.437 L1.228128,18.9335172 C1.19328,18.9794828 1.158432,19.0275862 1.12464,19.0799655 L1.12464,19.0799655 C0.341088,20.3498966 0.826848,22.0869655 2.20704,22.9613793 L2.20704,22.9613793 C3.589344,23.8336552 5.344416,23.5108276 6.127968,22.2387586 L6.127968,22.2387586 C6.146976,22.2098966 6.162816,22.1778276 6.178656,22.1468276 L6.178656,22.1468276 L6.180768,22.1489655 L17.844288,3.23148276 L19.084032,0.869068966 L18.68592,0.606103448 L17.03328,2.73013793 L17.03328,2.73013793 Z" id="Shape"></path>
                <path d="M-5.32907052e-15,5.58748276 C1.076064,5.09468966 2.36544,5.13637931 3.443616,5.81731034 L3.443616,5.81731034 C4.793184,6.67034483 5.400384,8.26524138 5.078304,9.75431034 L5.078304,9.75431034 C6.2568,8.8072069 7.940064,8.65862069 9.289632,9.50951724 L9.289632,9.50951724 C10.638144,10.3636207 11.2464,11.9595862 10.923264,13.4486552 L10.923264,13.4486552 C12.10176,12.4994138 13.787136,12.3508276 15.134592,13.2038621 L15.134592,13.2038621 C16.483104,14.0568966 17.092416,15.6528621 16.76928,17.141931 L16.76928,17.141931 C17.947776,16.1948276 19.63104,16.0451724 20.979552,16.8971379 L20.979552,16.8971379 C22.10208,17.6037241 22.706112,18.8255517 22.695552,20.0708966 C25.257408,13.9478621 23.11584,6.67782759 17.368032,3.04441379 L17.368032,3.04441379 C15.129312,1.63124138 12.642432,0.956724138 10.186176,0.956724138 C6.370848,0.955655172 2.628384,2.58262069 -5.32907052e-15,5.58748276 L-5.32907052e-15,5.58748276 Z" id="Shape"></path>
            </g>
        </g>
    </g>
</svg>